<svg width="20" height="25" viewBox="0 0 20 25" fill="none" xmlns="http://www.w3.org/2000/svg">
<path d="M19.209 6.05117C18.7033 4.86914 17.9736 3.79844 17.0611 2.89933C15.1734 1.03668 12.6382 -0.00420722 9.99949 3.50985e-05C7.36083 -0.00696407 4.82497 1.03309 2.93786 2.89629C2.02596 3.79591 1.29638 4.86649 0.789964 6.04814C0.2668 7.26946 -0.00208472 8.58645 1.21704e-05 9.91723C0.0122711 11.8919 0.473083 13.8373 1.34694 15.6037C2.12747 17.1793 3.13281 18.6307 4.33078 19.9112C5.82326 21.5271 7.52726 22.9294 9.39551 24.0793C9.57738 24.1873 9.78452 24.2443 9.99549 24.2443C10.2065 24.2443 10.4136 24.1873 10.5954 24.0793C12.4637 22.9294 14.1677 21.5271 15.6602 19.9112C16.8587 18.6311 17.8642 17.1797 18.644 15.6037C19.5234 13.8401 19.9872 11.8949 19.999 9.92026C20.0012 8.58947 19.7323 7.27245 19.209 6.05117ZM9.99949 22.1549C8.22858 21.0133 1.93491 16.4977 1.93491 9.91925C1.93421 8.87069 2.14233 7.8327 2.54689 6.86707C2.95145 5.90144 3.54417 5.0279 4.28978 4.29846C5.81972 2.7991 7.86747 1.96055 9.99898 1.96055C12.1305 1.96055 14.1782 2.7991 15.7082 4.29846C16.4539 5.02716 17.0468 5.90013 17.4514 6.8653C17.8559 7.83047 18.064 8.86807 18.0631 9.91622C18.0641 16.4937 11.7704 21.0123 9.99949 22.1549ZM9.99949 5.33999C9.05999 5.33679 8.14069 5.61531 7.35799 6.1403C6.57529 6.66528 5.96439 7.4131 5.60267 8.28906C5.24094 9.16503 5.14465 10.1297 5.326 11.061C5.50734 11.9923 5.95816 12.8483 6.62137 13.5206C7.28457 14.1928 8.13033 14.6512 9.05154 14.8375C9.97275 15.0239 10.928 14.9299 11.7963 14.5674C12.6646 14.2049 13.4068 13.5903 13.9291 12.8013C14.4514 12.0124 14.7302 11.0846 14.7302 10.1354C14.7313 9.50675 14.6098 8.88401 14.3726 8.30278C14.1354 7.72154 13.7872 7.19318 13.3479 6.74788C12.9087 6.30258 12.3868 5.94906 11.8123 5.70749C11.2378 5.46593 10.6218 5.34105 9.99949 5.33999ZM12.1284 12.2932C11.634 12.795 10.9826 13.108 10.2853 13.1788C9.58795 13.2496 8.88793 13.0738 8.30457 12.6815C7.72121 12.2891 7.29062 11.7045 7.08625 11.0272C6.88188 10.35 6.91638 9.62214 7.18385 8.96774C7.45133 8.31333 7.93522 7.77292 8.55301 7.43866C9.17081 7.10441 9.88424 6.997 10.5717 7.13477C11.2591 7.27254 11.8779 7.64694 12.3226 8.19413C12.7673 8.74133 13.0104 9.42743 13.0103 10.1354C13.0121 10.5362 12.9351 10.9333 12.7837 11.3037C12.6323 11.6742 12.4095 12.0105 12.1284 12.2932Z" fill="#535252"/>
</svg>
