<svg width="16" height="12" viewBox="0 0 16 12" fill="none" xmlns="http://www.w3.org/2000/svg">
<path d="M15.8941 5.52626C14.1546 1.85218 11.5253 0 8 0C4.47473 0 1.84543 1.84951 0.105908 5.52626C0.0361656 5.6744 0 5.83619 0 6.00001C0 6.16382 0.0361656 6.3256 0.105908 6.47374C1.84543 10.1478 4.47473 12 8 12C11.5253 12 14.1546 10.1505 15.8941 6.47374C15.9638 6.3256 16 6.16382 16 6.00001C16 5.83619 15.9638 5.6744 15.8941 5.52626ZM8 10.6746C5.04005 10.6746 2.87298 9.16913 1.345 6.00134C2.87387 2.83265 5.04094 1.32809 8 1.32809C10.9591 1.32809 13.127 2.83355 14.655 6.00134C13.1332 9.16735 10.9617 10.6719 8 10.6719V10.6746ZM7.92622 2.76224C7.28753 2.76224 6.66318 2.95216 6.13213 3.30798C5.60108 3.6638 5.18718 4.16953 4.94276 4.76123C4.69834 5.35294 4.63439 6.00404 4.75899 6.63219C4.8836 7.26034 5.19115 7.83733 5.64277 8.29021C6.0944 8.74308 6.6698 9.05149 7.29622 9.17644C7.92264 9.30138 8.57194 9.23726 9.16201 8.99216C9.75209 8.74707 10.2564 8.33202 10.6113 7.79949C10.9661 7.26697 11.1555 6.6409 11.1555 6.00044C11.1553 5.14192 10.8151 4.31864 10.2097 3.71158C9.60428 3.10451 8.78326 2.76337 7.92711 2.76313L7.92622 2.76224ZM7.92622 8.06121C7.51977 8.06121 7.12244 7.94034 6.78449 7.71391C6.44653 7.48747 6.18312 7.16562 6.02758 6.78906C5.87204 6.41251 5.83134 5.99816 5.91063 5.59841C5.98993 5.19866 6.18565 4.83147 6.47306 4.54327C6.76047 4.25507 7.12665 4.05881 7.5253 3.97929C7.92394 3.89978 8.33715 3.94058 8.71267 4.09656C9.08818 4.25253 9.40914 4.51666 9.63495 4.85555C9.86077 5.19444 9.9813 5.59286 9.9813 6.00044C9.98106 6.5466 9.76453 7.07031 9.37932 7.45642C8.99411 7.84253 8.47176 8.05943 7.92711 8.05943L7.92622 8.06121Z" fill="#040404"/>
</svg>
 