<svg width="60" height="74" viewBox="0 0 60 74" fill="none" xmlns="http://www.w3.org/2000/svg">
<path d="M18.9998 29.6667H22.6665C23.639 29.6667 24.5716 29.2804 25.2592 28.5927C25.9469 27.9051 26.3332 26.9725 26.3332 26C26.3332 25.0275 25.9469 24.0949 25.2592 23.4073C24.5716 22.7197 23.639 22.3333 22.6665 22.3333H18.9998C18.0274 22.3333 17.0947 22.7197 16.4071 23.4073C15.7195 24.0949 15.3332 25.0275 15.3332 26C15.3332 26.9725 15.7195 27.9051 16.4071 28.5927C17.0947 29.2804 18.0274 29.6667 18.9998 29.6667ZM18.9998 37C18.0274 37 17.0947 37.3863 16.4071 38.074C15.7195 38.7616 15.3332 39.6942 15.3332 40.6667C15.3332 41.6391 15.7195 42.5718 16.4071 43.2594C17.0947 43.947 18.0274 44.3333 18.9998 44.3333H40.9998C41.9723 44.3333 42.9049 43.947 43.5926 43.2594C44.2802 42.5718 44.6665 41.6391 44.6665 40.6667C44.6665 39.6942 44.2802 38.7616 43.5926 38.074C42.9049 37.3863 41.9723 37 40.9998 37H18.9998ZM59.3332 25.78C59.295 25.4432 59.2212 25.1113 59.1132 24.79V24.46C58.9369 24.083 58.7017 23.7364 58.4165 23.4333L36.4165 1.43334C36.1134 1.14814 35.7668 0.912974 35.3898 0.736676C35.2804 0.72113 35.1693 0.72113 35.0598 0.736676C34.6874 0.523061 34.276 0.385939 33.8498 0.333344H11.6665C8.74912 0.333344 5.95123 1.49227 3.88833 3.55517C1.82543 5.61807 0.666504 8.41596 0.666504 11.3333V62.6667C0.666504 65.5841 1.82543 68.382 3.88833 70.4449C5.95123 72.5078 8.74912 73.6667 11.6665 73.6667H48.3332C51.2505 73.6667 54.0484 72.5078 56.1113 70.4449C58.1742 68.382 59.3332 65.5841 59.3332 62.6667V26C59.3332 26 59.3332 26 59.3332 25.78ZM37.3332 12.8367L46.8298 22.3333H40.9998C40.0274 22.3333 39.0947 21.947 38.4071 21.2594C37.7195 20.5718 37.3332 19.6391 37.3332 18.6667V12.8367ZM51.9998 62.6667C51.9998 63.6391 51.6135 64.5718 50.9259 65.2594C50.2383 65.947 49.3056 66.3333 48.3332 66.3333H11.6665C10.694 66.3333 9.76141 65.947 9.07378 65.2594C8.38615 64.5718 7.99984 63.6391 7.99984 62.6667V11.3333C7.99984 10.3609 8.38615 9.42825 9.07378 8.74062C9.76141 8.05299 10.694 7.66668 11.6665 7.66668H29.9998V18.6667C29.9998 21.5841 31.1588 24.382 33.2217 26.4449C35.2846 28.5078 38.0825 29.6667 40.9998 29.6667H51.9998V62.6667ZM40.9998 51.6667H18.9998C18.0274 51.6667 17.0947 52.053 16.4071 52.7406C15.7195 53.4282 15.3332 54.3609 15.3332 55.3333C15.3332 56.3058 15.7195 57.2384 16.4071 57.9261C17.0947 58.6137 18.0274 59 18.9998 59H40.9998C41.9723 59 42.9049 58.6137 43.5926 57.9261C44.2802 57.2384 44.6665 56.3058 44.6665 55.3333C44.6665 54.3609 44.2802 53.4282 43.5926 52.7406C42.9049 52.053 41.9723 51.6667 40.9998 51.6667Z" fill="#CCAA77"/>
</svg>
