<svg width="11" height="18" viewBox="0 0 11 18" fill="none" xmlns="http://www.w3.org/2000/svg">
<path d="M0.946692 8.05334L8.49336 0.520008C8.61731 0.395037 8.76478 0.295845 8.92726 0.228153C9.08973 0.160462 9.26401 0.12561 9.44002 0.12561C9.61604 0.12561 9.79031 0.160462 9.95279 0.228153C10.1153 0.295845 10.2627 0.395037 10.3867 0.520008C10.635 0.769825 10.7744 1.10776 10.7744 1.46001C10.7744 1.81226 10.635 2.15019 10.3867 2.40001L3.78669 9.06667L10.3867 15.6667C10.635 15.9165 10.7744 16.2544 10.7744 16.6067C10.7744 16.9589 10.635 17.2969 10.3867 17.5467C10.2632 17.6727 10.1159 17.7729 9.95344 17.8415C9.79094 17.9102 9.61643 17.9459 9.44002 17.9467C9.26361 17.9459 9.0891 17.9102 8.9266 17.8415C8.7641 17.7729 8.61684 17.6727 8.49336 17.5467L0.946692 10.0133C0.811353 9.88848 0.703341 9.73695 0.629465 9.56828C0.555589 9.39962 0.517448 9.21748 0.517448 9.03334C0.517448 8.84921 0.555589 8.66707 0.629465 8.4984C0.703341 8.32973 0.811353 8.1782 0.946692 8.05334Z" fill="#2A333E"/>
</svg>
