<svg width="140" height="166" viewBox="0 0 140 166" fill="none" xmlns="http://www.w3.org/2000/svg">
<path d="M65 5L94 34.6513V123H65V5Z" fill="white" stroke="#95C62F" stroke-width="10" stroke-linejoin="round"/>
<path d="M37 32.2308L65 5V123H37V32.2308Z" fill="white" stroke="#95C62F" stroke-width="10" stroke-linejoin="round"/>
<path d="M105 19L125 39.1026V99H105V19Z" fill="white" stroke="#95C62F" stroke-width="10" stroke-linejoin="round"/>
<path d="M87 37.4615L105 19V99H87V37.4615Z" fill="white" stroke="#95C62F" stroke-width="10" stroke-linejoin="round"/>
<path d="M35 49L54 69.1026V129H35V49Z" fill="white" stroke="#95C62F" stroke-width="10" stroke-linejoin="round"/>
<path d="M16 67.4615L35 49V129H16V67.4615Z" fill="white" stroke="#95C62F" stroke-width="10" stroke-linejoin="round"/>
<mask id="path-7-inside-1_83_2112" fill="white">
<path fill-rule="evenodd" clip-rule="evenodd" d="M69.9999 166C108.66 166 140 134.66 140 96C140 89.7217 139.173 83.6364 137.623 77.847C90.2366 83.1005 50.0865 112.348 29.5938 153.168C41.0082 161.25 54.9494 166 69.9999 166Z"/>
</mask>
<path fill-rule="evenodd" clip-rule="evenodd" d="M69.9999 166C108.66 166 140 134.66 140 96C140 89.7217 139.173 83.6364 137.623 77.847C90.2366 83.1005 50.0865 112.348 29.5938 153.168C41.0082 161.25 54.9494 166 69.9999 166Z" fill="white"/>
<path d="M137.623 77.847L147.283 75.2605L145.061 66.9612L136.521 67.9079L137.623 77.847ZM29.5938 153.168L20.6567 148.681L16.8006 156.362L23.8149 161.329L29.5938 153.168ZM130 96C130 129.137 103.137 156 69.9999 156V176C114.183 176 150 140.183 150 96H130ZM127.963 80.4336C129.29 85.3869 130 90.6028 130 96H150C150 88.8405 149.057 81.8859 147.283 75.2605L127.963 80.4336ZM38.5308 157.654C57.5487 119.772 94.8034 92.6555 138.725 87.7862L136.521 67.9079C85.6698 73.5455 42.6243 104.923 20.6567 148.681L38.5308 157.654ZM69.9999 156C57.0865 156 45.153 151.932 35.3726 145.006L23.8149 161.329C36.8634 170.568 52.8122 176 69.9999 176V156Z" fill="#95C62F" mask="url(#path-7-inside-1_83_2112)"/>
<mask id="path-9-inside-2_83_2112" fill="white">
<path fill-rule="evenodd" clip-rule="evenodd" d="M0.167624 91.1175C1.60184 91.0395 3.04631 91 4.5 91C46.2834 91 80.4422 123.645 82.8628 164.821C78.6933 165.595 74.3939 166 70 166C31.3401 166 0 134.66 0 96C0 94.3587 0.0564875 92.7306 0.167624 91.1175Z"/>
</mask>
<path fill-rule="evenodd" clip-rule="evenodd" d="M0.167624 91.1175C1.60184 91.0395 3.04631 91 4.5 91C46.2834 91 80.4422 123.645 82.8628 164.821C78.6933 165.595 74.3939 166 70 166C31.3401 166 0 134.66 0 96C0 94.3587 0.0564875 92.7306 0.167624 91.1175Z" fill="white"/>
<path d="M0.167624 91.1175L-0.37551 81.1323L-9.2012 81.6123L-9.80873 90.4302L0.167624 91.1175ZM82.8628 164.821L84.6889 174.653L93.3634 173.041L92.8456 164.234L82.8628 164.821ZM0.710759 101.103C1.9642 101.035 3.22756 101 4.5 101V81C2.86506 81 1.23948 81.0444 -0.37551 81.1323L0.710759 101.103ZM4.5 101C40.9571 101 70.7683 129.486 72.8801 165.408L92.8456 164.234C90.1161 117.803 51.6096 81 4.5 81V101ZM81.0368 154.989C77.4666 155.652 73.7784 156 70 156V176C75.0094 176 79.92 175.538 84.6889 174.653L81.0368 154.989ZM70 156C36.8629 156 10 129.137 10 96H-10C-10 140.183 25.8172 176 70 176V156ZM10 96C10 94.5882 10.0486 93.1894 10.144 91.8049L-9.80873 90.4302C-9.93561 92.2718 -10 94.1292 -10 96H10Z" fill="#95C62F" mask="url(#path-9-inside-2_83_2112)"/>
</svg>
