<svg width="24" height="20" viewBox="0 0 24 20" fill="none" xmlns="http://www.w3.org/2000/svg">
<path d="M23.1418 0.49024H0.856957C0.74473 0.489841 0.633527 0.511791 0.529704 0.554842C0.425881 0.597893 0.331475 0.661205 0.251886 0.741141C0.172298 0.821077 0.109081 0.91608 0.0658611 1.02071C0.0226408 1.12535 0.000262135 1.23756 0 1.35094V18.5729C0.000262135 18.6863 0.0226408 18.7985 0.0658611 18.9031C0.109081 19.0078 0.172298 19.1028 0.251886 19.1827C0.331475 19.2626 0.425881 19.3259 0.529704 19.369C0.633527 19.412 0.74473 19.434 0.856957 19.4336H23.1418C23.254 19.434 23.3652 19.412 23.469 19.369C23.5729 19.3259 23.6673 19.2626 23.7469 19.1827C23.8264 19.1028 23.8897 19.0078 23.9329 18.9031C23.9761 18.7985 23.9985 18.6863 23.9987 18.5729V1.35094C23.9985 1.23756 23.9761 1.12535 23.9329 1.02071C23.8897 0.91608 23.8264 0.821077 23.7469 0.741141C23.6673 0.661205 23.5729 0.597893 23.469 0.554842C23.3652 0.511791 23.254 0.489841 23.1418 0.49024ZM22.0708 3.47136V17.494H1.9289V3.47136L1.18994 2.89251L2.24288 1.53379L3.38882 2.42983H20.6129L21.7589 1.53379L22.8118 2.89251L22.0698 3.47136H22.0708ZM20.6139 2.42781L11.9994 9.15376L3.38582 2.42781L2.23988 1.53177L1.18693 2.89049L1.9259 3.46934L11.0754 10.6155C11.339 10.8208 11.6625 10.9321 11.9954 10.9321C12.3282 10.9321 12.6517 10.8208 12.9153 10.6155L22.0698 3.47236L22.8088 2.89351L21.7559 1.53479L20.6139 2.42781Z" fill="#535252"/>
</svg>
