<svg width="25" height="25" viewBox="0 0 25 25" fill="none" xmlns="http://www.w3.org/2000/svg">
<path d="M22.957 4.08412L19.7571 0.859555C19.5653 0.664564 19.3372 0.509815 19.086 0.404219C18.8347 0.298622 18.5653 0.244263 18.2932 0.244263C18.0211 0.244263 17.7517 0.298622 17.5004 0.404219C17.2492 0.509815 17.0211 0.664564 16.8293 0.859555L13.3885 4.3296C13.1954 4.52397 13.0422 4.75493 12.9377 5.00924C12.8331 5.26355 12.7793 5.53621 12.7793 5.81157C12.7793 6.08693 12.8331 6.35958 12.9377 6.61389C13.0422 6.8682 13.1954 7.09917 13.3885 7.29353L16.0763 10.012C14.8336 12.917 12.5425 15.235 9.66866 16.4945L6.9808 13.776C6.78898 13.581 6.5609 13.4263 6.30966 13.3207C6.05842 13.2151 5.78899 13.1607 5.51688 13.1607C5.24476 13.1607 4.97533 13.2151 4.72409 13.3207C4.47286 13.4263 4.24476 13.581 4.05295 13.776L0.609129 17.246C0.416055 17.4404 0.262862 17.6714 0.158332 17.9257C0.0538026 18.18 0 18.4527 0 18.728C0 19.0034 0.0538026 19.276 0.158332 19.5304C0.262862 19.7847 0.416055 20.0156 0.609129 20.21L3.80096 23.4346C4.47352 24.1102 5.38333 24.4897 6.33183 24.4902C6.52485 24.4908 6.71754 24.4745 6.9078 24.4417C11.1127 23.5855 14.9738 21.494 18.0067 18.4295C21.0395 15.365 23.1091 11.464 23.9559 7.21575C24.0466 6.65106 24.0032 6.07268 23.8294 5.52824C23.6555 4.98379 23.3562 4.48884 22.956 4.08412H22.957ZM21.829 6.85713C21.0537 10.6569 19.1935 14.1439 16.4783 16.8875C13.7631 19.6311 10.3118 21.511 6.55082 22.295C6.32971 22.3306 6.10339 22.3125 5.89057 22.2423C5.67774 22.172 5.48452 22.0516 5.32688 21.891L2.19205 18.724L5.51588 15.363L9.10969 18.9998L9.13669 19.027L9.78465 18.7846C11.7493 18.0548 13.5334 16.9022 15.0133 15.4066C16.4932 13.911 17.6335 12.1082 18.3552 10.1231L18.5952 9.4685L14.9714 5.81056L18.2952 2.44961L21.43 5.6166C21.5904 5.77595 21.7103 5.97197 21.7798 6.18808C21.8492 6.4042 21.8661 6.63403 21.829 6.85814V6.85713Z" fill="#535252"/>
</svg>
