<svg width="18" height="18" viewBox="0 0 18 18" fill="none" xmlns="http://www.w3.org/2000/svg">
<path d="M15.6 7.28999H14.7428C14.6974 7.29013 14.6539 7.30914 14.6218 7.34287C14.5896 7.3766 14.5715 7.4223 14.5714 7.47V8.36999C14.5715 8.4177 14.5896 8.4634 14.6218 8.49713C14.6539 8.53086 14.6974 8.54987 14.7428 8.55001H15.6C15.6454 8.54987 15.6889 8.53086 15.7211 8.49713C15.7532 8.4634 15.7713 8.4177 15.7714 8.36999V7.47C15.7713 7.4223 15.7532 7.3766 15.7211 7.34287C15.6889 7.30914 15.6454 7.29013 15.6 7.28999ZM16.2857 4.95001H13.7143V0.180012C13.7141 0.132318 13.696 0.0866156 13.6639 0.0528871C13.6318 0.0191586 13.5883 0.000145217 13.5429 0H4.45714C4.41171 0.000135541 4.36818 0.0191447 4.33606 0.0528743C4.30393 0.0866038 4.28583 0.132312 4.2857 0.180012V4.95001H1.7143C1.48916 4.94995 1.26621 4.99646 1.0582 5.08689C0.850183 5.17732 0.661176 5.30991 0.501977 5.47706C0.342777 5.64422 0.216504 5.84267 0.130373 6.06109C0.044242 6.2795 -5.92157e-05 6.51359 4.72176e-07 6.74999V14.13C-0.000105297 14.2246 0.0175594 14.3183 0.051983 14.4057C0.0864065 14.4931 0.136913 14.5725 0.200609 14.6394C0.264306 14.7062 0.339942 14.7593 0.423186 14.7954C0.50643 14.8316 0.595647 14.8501 0.685728 14.85H4.2857V17.82C4.28583 17.8677 4.30393 17.9134 4.33606 17.9471C4.36818 17.9809 4.41171 17.9999 4.45714 18H13.5429C13.5883 17.9999 13.6318 17.9809 13.6639 17.9471C13.6961 17.9134 13.7142 17.8677 13.7143 17.82V14.85H17.3143C17.4044 14.8501 17.4936 14.8315 17.5768 14.7954C17.6601 14.7592 17.7357 14.7062 17.7994 14.6393C17.8631 14.5724 17.9136 14.493 17.948 14.4056C17.9824 14.3182 18.0001 14.2245 18 14.13V6.74999C18.0001 6.51359 17.9558 6.27949 17.8696 6.06108C17.7835 5.84266 17.6572 5.6442 17.498 5.47704C17.3388 5.30988 17.1498 5.17729 16.9418 5.08686C16.7338 4.99642 16.5108 4.94991 16.2857 4.94998V4.95001ZM5.74284 1.53007H12.2571V4.95005H5.74284V1.53007ZM12.2571 16.47H5.74284V10.26H12.2571V16.47ZM16.543 13.32H13.7143V8.72998H4.2857V13.32H1.45721V6.74999C1.45741 6.67845 1.48457 6.60991 1.53275 6.55932C1.58092 6.50874 1.6462 6.48022 1.71434 6.48001H16.2857C16.3538 6.48022 16.4191 6.50874 16.4673 6.55932C16.5155 6.60991 16.5426 6.67845 16.5428 6.74999L16.543 13.32Z" fill="black" fill-opacity="0.55"/>
</svg>
