<svg width="11" height="18" viewBox="0 0 11 18" fill="none" xmlns="http://www.w3.org/2000/svg">
<path d="M10.0533 8.05334L2.50664 0.520008C2.38269 0.395037 2.23522 0.295845 2.07274 0.228153C1.91027 0.160462 1.73599 0.12561 1.55998 0.12561C1.38396 0.12561 1.20969 0.160462 1.04721 0.228153C0.884728 0.295845 0.73726 0.395037 0.613309 0.520008C0.364975 0.769825 0.225586 1.10776 0.225586 1.46001C0.225586 1.81226 0.364975 2.15019 0.613309 2.40001L7.21331 9.06667L0.613309 15.6667C0.364975 15.9165 0.225586 16.2544 0.225586 16.6067C0.225586 16.9589 0.364975 17.2969 0.613309 17.5467C0.736795 17.6727 0.884055 17.7729 1.04656 17.8415C1.20906 17.9102 1.38357 17.9459 1.55998 17.9467C1.73639 17.9459 1.9109 17.9102 2.0734 17.8415C2.2359 17.7729 2.38316 17.6727 2.50664 17.5467L10.0533 10.0133C10.1886 9.88848 10.2967 9.73695 10.3705 9.56828C10.4444 9.39962 10.4826 9.21748 10.4826 9.03334C10.4826 8.8492 10.4444 8.66707 10.3705 8.4984C10.2967 8.32973 10.1886 8.1782 10.0533 8.05334V8.05334Z" fill="#2A333E"/>
</svg>
