<svg width="28" height="30" viewBox="0 0 28 30" fill="none" xmlns="http://www.w3.org/2000/svg">
<path d="M27.7101 0.114384C27.499 -0.0305114 27.2255 -0.0382351 27.0074 0.0939939L0.321683 16.246C0.0951427 16.3832 -0.0290305 16.6449 0.00579859 16.9109C0.0400219 17.1766 0.227493 17.3962 0.480685 17.4685L7.26145 19.3942C7.4674 19.4523 7.68818 19.4053 7.85385 19.2675L18.6866 10.2404L11.1299 20.0794C11.0387 20.1974 10.99 20.3433 10.99 20.4931V29.3296C10.99 29.628 11.1826 29.89 11.4634 29.9731C11.5242 29.9917 11.586 30 11.6472 30C11.8677 30 12.0788 29.8869 12.2014 29.6898L16.9191 22.1361L23.8159 24.0942C23.997 24.1458 24.1914 24.1149 24.3501 24.0105C24.5079 23.9057 24.6145 23.737 24.643 23.5473L27.9926 0.770278C28.0305 0.51447 27.9205 0.258971 27.7101 0.114384Z" fill="white"/>
</svg>
